<svg width="70" height="70" viewBox="0 0 70 70" fill="none" xmlns="http://www.w3.org/2000/svg">
<circle cx="35" cy="35" r="35" fill="white"/>
<path d="M21.4 24.8666C21.4 23.3939 22.5939 22.2 24.0667 22.2H45.4C46.8728 22.2 48.0667 23.3939 48.0667 24.8666V39.5333C48.0667 41.006 46.8728 42.2 45.4 42.2H36.0667V44.8666H40.0667C40.8031 44.8666 41.4 45.4636 41.4 46.2C41.4 46.9363 40.8031 47.5333 40.0667 47.5333H29.4C28.6636 47.5333 28.0667 46.9363 28.0667 46.2C28.0667 45.4636 28.6636 44.8666 29.4 44.8666H33.4V42.2H24.0667C22.5939 42.2 21.4 41.006 21.4 39.5333V24.8666ZM45.4 39.5333V24.8666H24.0667V39.5333H45.4Z" fill="#5DBD77"/>
</svg>
