<svg width="32" height="32" viewBox="0 0 32 32" fill="none" xmlns="http://www.w3.org/2000/svg">
<path d="M16.3905 7.05715C16.9112 6.53645 17.7554 6.53645 18.2761 7.05715L26.2761 15.0572C26.5262 15.3072 26.6667 15.6463 26.6667 16C26.6667 16.3536 26.5262 16.6927 26.2761 16.9428L18.2761 24.9428C17.7554 25.4635 16.9112 25.4635 16.3905 24.9428C15.8698 24.4221 15.8698 23.5778 16.3905 23.0571L22.1144 17.3333L6.66667 17.3333C5.93029 17.3333 5.33334 16.7363 5.33334 16C5.33334 15.2636 5.93029 14.6666 6.66667 14.6666H22.1144L16.3905 8.94277C15.8698 8.42207 15.8698 7.57785 16.3905 7.05715Z" fill="#757A80"/>
</svg>
