<svg width="32" height="32" viewBox="0 0 32 32" fill="none" xmlns="http://www.w3.org/2000/svg">
<path d="M15.6095 7.05715C16.1302 7.57785 16.1302 8.42207 15.6095 8.94277L9.88561 14.6666H25.3333C26.0697 14.6666 26.6667 15.2636 26.6667 16C26.6667 16.7363 26.0697 17.3333 25.3333 17.3333H9.88561L15.6095 23.0571C16.1302 23.5778 16.1302 24.4221 15.6095 24.9428C15.0888 25.4635 14.2446 25.4635 13.7239 24.9428L5.72385 16.9428C5.4738 16.6927 5.33333 16.3536 5.33333 16C5.33333 15.6463 5.4738 15.3072 5.72385 15.0571L13.7239 7.05715C14.2446 6.53645 15.0888 6.53645 15.6095 7.05715Z" fill="#757A80"/>
</svg>
