<?xml version="1.0" encoding="UTF-8"?><svg id="a" xmlns="http://www.w3.org/2000/svg" width="156.67" height="31.22" viewBox="0 0 156.67 31.22"><path d="M39.34,26.32V7.62h8.49c2.2,0,3.81.4,4.85,1.19,1.05.81,1.64,2.09,1.56,3.41.04.82-.16,1.64-.57,2.35-.34.55-.83.99-1.41,1.28-.53.27-1.09.46-1.68.55l.04-.05c1.16.14,2.24.67,3.07,1.5.77.91,1.16,2.09,1.09,3.28.06,1.1-.26,2.2-.91,3.1-.62.77-1.46,1.33-2.4,1.61-1.05.33-2.16.49-3.26.48,0,0-8.87,0-8.87,0ZM43.87,14.75h3.59c.59.04,1.18-.11,1.68-.42.4-.32.62-.83.58-1.35.02-.48-.16-.94-.48-1.28-.5-.38-1.12-.55-1.74-.48h-3.64s0,3.54,0,3.54ZM43.87,22.72h3.38c.62.03,1.23-.07,1.81-.3.38-.16.69-.46.87-.83.17-.37.26-.76.26-1.16,0-.41-.09-.81-.27-1.18-.2-.38-.53-.67-.94-.83-.6-.23-1.23-.34-1.86-.31h-3.25s0,4.61,0,4.61Z" fill="#231f20"/><path d="M60.55,26.63c-.82.01-1.64-.12-2.41-.42-.74-.27-1.38-.74-1.86-1.37-.49-.71-.74-1.56-.7-2.43-.04-.97.28-1.91.9-2.66.69-.74,1.57-1.29,2.54-1.56,1.27-.37,2.59-.55,3.92-.52h1.76l-.23.42v-.83c.06-.65-.09-1.3-.42-1.86-.34-.4-.86-.61-1.38-.55-.53-.04-1.05.15-1.44.52-.35.43-.57.96-.62,1.52l-4.41-.74c.17-.78.52-1.51,1.03-2.13.58-.69,1.32-1.22,2.16-1.53,1.13-.4,2.32-.6,3.52-.56,1.09-.02,2.18.17,3.2.57.89.38,1.61,1.08,2.04,1.95.53,1.2.78,2.5.71,3.8v4.11c-.02.2.02.4.12.58.14.12.33.17.51.14h.56v3.25h-1.97c-.93.07-1.86-.24-2.56-.85-.6-.68-.91-1.58-.84-2.48v-.52l.81.35c-.12.42-.27.84-.45,1.24-.21.45-.49.87-.83,1.24-.4.42-.89.76-1.43.98-.71.26-1.46.38-2.21.35ZM61.87,23.7c.5.01.99-.12,1.41-.37.41-.27.73-.65.92-1.09.23-.55.34-1.14.32-1.73v-.37h-1.37c-.64-.03-1.27.08-1.86.32-.38.17-.7.44-.92.79-.16.27-.25.58-.25.89.01.21.06.42.14.62.11.25.29.47.52.62.32.22.71.33,1.1.32Z" fill="#231f20"/><path d="M71.52,26.32v-14.02h4.29v3.26l-.1-.58c.37-.89.99-1.67,1.77-2.24.79-.54,1.74-.82,2.71-.79.94-.04,1.87.23,2.64.78.69.55,1.2,1.28,1.46,2.12.32.99.47,2.02.45,3.06v8.42h-4.41v-8.15c.04-.73-.09-1.46-.4-2.13-.29-.5-.84-.78-1.41-.73-.83-.01-1.58.46-1.92,1.2-.5,1.17-.71,2.45-.62,3.72v6.09s-4.45,0-4.45,0Z" fill="#231f20"/><path d="M86.96,26.32V6.84h4.42v10.48l4.79-5.05h4.87l-4.93,5.22,5.14,8.81h-4.87l-3.2-5.65-1.81,1.92v3.72s-4.42.03-4.42.03Z" fill="#231f20"/><path d="M112.68,26.67c-1.27.01-2.52-.23-3.69-.71-1.06-.45-1.98-1.17-2.67-2.09-.7-.97-1.08-2.12-1.12-3.31l4.39-1.31c-.07,1.02.22,2.03.82,2.86.53.62,1.32.97,2.14.93.7.03,1.37-.19,1.92-.62.52-.47.81-1.16.76-1.86,0-.43-.09-.86-.29-1.24-.2-.42-.53-.76-.95-.99-.61-.28-1.27-.41-1.94-.37h-1.16v-3.05h1.57c.63.04,1.25-.17,1.73-.58.4-.37.63-.89.62-1.44,0-.52-.19-1.03-.54-1.41-.45-.44-1.06-.66-1.69-.62-.65-.03-1.28.19-1.77.62-.5.57-.75,1.31-.73,2.07l-4.28-1.15c.09-.89.42-1.74.97-2.45.63-.83,1.45-1.49,2.39-1.93,1.17-.53,2.44-.79,3.72-.75,1.1-.02,2.18.17,3.21.56.91.34,1.72.92,2.31,1.69.6.81.9,1.79.86,2.79,0,.61-.11,1.22-.33,1.79-.24.58-.63,1.09-1.14,1.46-.65.45-1.4.71-2.18.76,1.21.12,2.33.68,3.17,1.56.72.84,1.09,1.92,1.06,3.03.02.89-.18,1.78-.59,2.58-.39.72-.94,1.33-1.61,1.8-.7.48-1.48.84-2.31,1.05-.87.24-1.77.35-2.68.35Z" fill="#01a0c6"/><path d="M128.54,26.67c-2.41,0-4.26-.81-5.55-2.42s-1.94-3.89-1.93-6.83c0-1.23.12-2.46.38-3.67.23-1.15.65-2.25,1.23-3.26.56-.97,1.37-1.77,2.33-2.35,1.11-.61,2.36-.92,3.63-.87,1.17-.03,2.32.21,3.38.71.9.42,1.68,1.04,2.3,1.82.55.7.92,1.51,1.08,2.38l-4.16,1.13c-.02-.7-.28-1.37-.74-1.9-.48-.48-1.14-.74-1.82-.71-.55-.02-1.08.13-1.53.44-.41.3-.73.71-.94,1.17-.24.5-.4,1.04-.5,1.58-.11.56-.17,1.14-.2,1.71-.03.56-.04,1.07-.04,1.52l-.62-.26c.44-.78,1.05-1.44,1.8-1.93.91-.53,1.94-.79,2.99-.74,1.14-.04,2.27.24,3.26.81.86.52,1.54,1.27,1.97,2.17.45.94.67,1.97.66,3.02.03,1.21-.28,2.4-.88,3.44-.6.97-1.46,1.76-2.48,2.25-1.13.55-2.36.82-3.62.8h0ZM128.51,23.24c.71.04,1.4-.25,1.86-.8.45-.6.66-1.34.62-2.09.04-.74-.19-1.48-.66-2.07-.47-.52-1.16-.79-1.86-.75-.71-.03-1.39.26-1.86.79-.48.58-.72,1.32-.68,2.07-.04.75.2,1.49.69,2.07.48.53,1.18.82,1.9.78h0Z" fill="#01a0c6"/><path d="M144.18,26.67c-2.13.11-4.18-.84-5.48-2.53-1.28-1.68-1.92-4.07-1.93-7.17,0-3.1.64-5.5,1.93-7.19,2.58-3.03,7.13-3.39,10.16-.8.29.25.56.52.8.8,1.28,1.68,1.92,4.08,1.92,7.17s-.64,5.49-1.92,7.19c-1.3,1.69-3.35,2.64-5.48,2.53h0ZM144.18,23.05c.95-.01,1.78-.63,2.08-1.53.54-1.46.78-3,.69-4.55.08-1.55-.16-3.08-.69-4.54-.35-1.14-1.56-1.78-2.7-1.43-.68.21-1.22.74-1.43,1.43-.53,1.45-.76,2.99-.68,4.54-.08,1.55.16,3.1.68,4.55.29.89,1.1,1.5,2.04,1.53,0,0,.01,0,.01,0Z" fill="#01a0c6"/><circle cx="154.5" cy="7.27" r="1.67" fill="none" stroke="#01a0c6" stroke-miterlimit="10"/><path d="M16.43,0h.13l.56.24,1.47.65.73.32,1.6.71.56.24.67.3,1.53.67,1.4.61,2.33,1.02,1.4.61,2.16.95.11.07v3.71l-.09.02H1.96l-.02-.02v-3.71l.15-.09.84-.37.76-.34.6-.26.5-.22.73-.32,1.6-.71.47-.2.56-.24.54-.24.56-.24,1.6-.71.47-.2.56-.24.54-.24.56-.24,1.6-.71.47-.2.56-.24.54-.24.3-.13Z"/><path d="M.56,29.06h31.85l.19.06.17.11.13.15.09.19.02.11v.93l-.06.19-.11.19-.15.13-.2.09-.19.02H.63l-.22-.06-.17-.11-.15-.17-.07-.17-.02-.07v-1.02l.07-.19.07-.11.13-.13.2-.11.07-.02Z" fill="#020202"/><path d="M23.52,11.03h4.99l.2.07.17.11.11.13.11.22.02.09v.32l-.07.2-.15.2-.19.13-.17.06-.15.02h-.32v11.18h.41l.19.06.19.11.13.15.11.22.02.07v.34l-.07.2-.17.22-.17.11-.15.06-.2.02h-4.77l-.17-.04-.2-.11-.15-.17-.11-.22-.02-.06v-.37l.09-.22.11-.15.13-.11.19-.09.06-.02h.47v-11.18h-.43l-.24-.09-.17-.13-.13-.19-.07-.19v-.37l.07-.19.11-.17.15-.13.24-.11Z"/><path d="M13.99,11.03h4.99l.2.07.17.11.11.13.11.22.02.09v.32l-.07.2-.15.2-.19.13-.17.06-.15.02h-.32v11.18h.41l.19.06.19.11.13.15.11.22.02.09v.32l-.07.2-.17.22-.17.11-.15.06-.2.02h-4.77l-.17-.04-.17-.09-.15-.13-.13-.22-.04-.11v-.37l.09-.22.11-.15.13-.11.19-.09.06-.02h.47v-11.18h-.43l-.24-.09-.17-.13-.13-.19-.07-.19v-.37l.07-.19.11-.17.15-.13.24-.11Z"/><path d="M4.6,11.03h4.99l.2.07.17.11.11.13.11.22.02.09v.32l-.07.2-.15.2-.19.13-.17.06-.15.02h-.32v11.18h.41l.19.06.19.11.13.15.11.22.02.09v.32l-.07.2-.17.22-.17.11-.15.06-.2.02h-4.77l-.17-.04-.17-.09-.15-.13-.13-.22-.04-.11v-.37l.09-.22.11-.15.13-.11.19-.09.06-.02h.47v-11.18h-.43l-.24-.09-.17-.13-.13-.19-.07-.19v-.37l.07-.19.11-.17.15-.13.24-.11Z"/><path d="M2.5,26.22h27.98l.19.06.17.11.13.15.09.19.02.11v.71l-.06.19-.11.19-.15.13-.2.09-.19.02H2.57l-.19-.04-.19-.11-.17-.19-.07-.17-.02-.07v-.8l.07-.19.07-.11.13-.13.2-.11.07-.02Z" fill="#020202"/></svg>