<svg width="70" height="70" viewBox="0 0 70 70" fill="none" xmlns="http://www.w3.org/2000/svg">
<circle cx="35" cy="35" r="35" fill="white"/>
<path d="M24.3333 24.3333C24.3333 22.8605 25.5272 21.6666 27 21.6666H37.6667C38.0203 21.6666 38.3594 21.8071 38.6095 22.0572L45.2762 28.7238C45.5262 28.9739 45.6667 29.313 45.6667 29.6666V45.6666C45.6667 47.1394 44.4728 48.3333 43 48.3333H27C25.5273 48.3333 24.3333 47.1394 24.3333 45.6666V24.3333ZM42.4477 29.6666L37.6667 24.8856V29.6666H42.4477ZM35 24.3333L27 24.3333V45.6666H43V32.3333H36.3333C35.597 32.3333 35 31.7363 35 31V24.3333ZM29.6667 36.3333C29.6667 35.5969 30.2636 35 31 35H39C39.7364 35 40.3333 35.5969 40.3333 36.3333C40.3333 37.0697 39.7364 37.6666 39 37.6666H31C30.2636 37.6666 29.6667 37.0697 29.6667 36.3333ZM29.6667 41.6666C29.6667 40.9302 30.2636 40.3333 31 40.3333H39C39.7364 40.3333 40.3333 40.9302 40.3333 41.6666C40.3333 42.403 39.7364 43 39 43H31C30.2636 43 29.6667 42.403 29.6667 41.6666Z" fill="#641D88"/>
</svg>
