<svg width="124" height="20" viewBox="0 0 124 20" fill="none" xmlns="http://www.w3.org/2000/svg">
<path d="M17.4441 7.71294H12.8072C12.7453 7.24048 12.6186 6.81403 12.4269 6.43361C12.2353 6.05318 11.9818 5.72798 11.6665 5.458C11.3512 5.18802 10.9771 4.98247 10.5444 4.84134C10.1178 4.69408 9.64479 4.62045 9.12546 4.62045C8.20426 4.62045 7.4098 4.84441 6.74208 5.29233C6.08055 5.74025 5.57049 6.38759 5.2119 7.23434C4.85949 8.0811 4.68329 9.10579 4.68329 10.3084C4.68329 11.5602 4.86258 12.6094 5.22117 13.4561C5.58594 14.2968 6.096 14.9318 6.75136 15.3613C7.41289 15.7847 8.19498 15.9964 9.09764 15.9964C9.60461 15.9964 10.0652 15.932 10.4794 15.8031C10.8999 15.6743 11.2677 15.4871 11.583 15.2417C11.9045 14.9901 12.1673 14.6864 12.3713 14.3305C12.5815 13.9685 12.7268 13.5605 12.8072 13.1064L17.4441 13.134C17.3637 13.9685 17.1195 14.7907 16.7115 15.6006C16.3096 16.4106 15.7563 17.15 15.0514 17.8188C14.3466 18.4814 13.4873 19.0091 12.4733 19.4018C11.4656 19.7945 10.3094 19.9909 9.0049 19.9909C7.28615 19.9909 5.74669 19.6166 4.38653 18.868C3.03255 18.1133 1.96296 17.015 1.17778 15.573C0.392593 14.1311 0 12.3762 0 10.3084C0 8.2345 0.398775 6.47656 1.19633 5.03462C1.99388 3.59268 3.07273 2.49743 4.4329 1.74885C5.79306 1.00027 7.31706 0.625977 9.0049 0.625977C10.1549 0.625977 11.2183 0.78551 12.1951 1.10458C13.1719 1.41751 14.0313 1.8777 14.7732 2.48515C15.5151 3.08647 16.1179 3.82585 16.5816 4.70328C17.0453 5.58072 17.3328 6.58394 17.4441 7.71294Z" fill="#151E28"/>
<path d="M24.4782 19.9725C23.5694 19.9725 22.7625 19.8221 22.0577 19.5215C21.3591 19.2147 20.8058 18.7545 20.3977 18.1409C19.9959 17.5212 19.7949 16.745 19.7949 15.8123C19.7949 15.0269 19.934 14.3643 20.2122 13.8243C20.4905 13.2843 20.8738 12.8456 21.3622 12.5082C21.8506 12.1707 22.4132 11.916 23.05 11.7442C23.6868 11.5663 24.3669 11.4466 25.0903 11.3853C25.9002 11.3116 26.5525 11.235 27.0471 11.1552C27.5417 11.0693 27.9003 10.9496 28.1228 10.7962C28.3516 10.6367 28.466 10.4127 28.466 10.1244V10.0783C28.466 9.60587 28.3021 9.24078 27.9744 8.98307C27.6468 8.72537 27.2047 8.59651 26.6483 8.59651C26.0486 8.59651 25.5663 8.72537 25.2016 8.98307C24.8368 9.24078 24.6049 9.59666 24.506 10.0507L20.3235 9.90346C20.4472 9.04443 20.7656 8.27745 21.2787 7.6025C21.7981 6.92141 22.5091 6.38759 23.4117 6.00103C24.3206 5.60833 25.4118 5.41198 26.6854 5.41198C27.5942 5.41198 28.432 5.51936 29.1986 5.73411C29.9652 5.94273 30.6329 6.24953 31.2017 6.6545C31.7705 7.05333 32.2095 7.54421 32.5186 8.12712C32.8339 8.71003 32.9916 9.37577 32.9916 10.1244V19.7332H28.7256V17.7635H28.6143C28.3609 18.2422 28.0363 18.6471 27.6406 18.9785C27.2511 19.3098 26.7905 19.5583 26.2588 19.724C25.7333 19.8896 25.1397 19.9725 24.4782 19.9725ZM25.8786 17.0272C26.367 17.0272 26.8059 16.9291 27.1954 16.7327C27.5911 16.5364 27.9064 16.2664 28.1414 15.9228C28.3763 15.573 28.4938 15.1681 28.4938 14.7079V13.3641C28.3639 13.4316 28.2063 13.493 28.0208 13.5482C27.8415 13.6034 27.6437 13.6556 27.4273 13.7046C27.2109 13.7537 26.9883 13.7967 26.7596 13.8335C26.5308 13.8703 26.3113 13.9041 26.1011 13.9347C25.6745 14.0022 25.3098 14.1066 25.0068 14.2477C24.7101 14.3888 24.4813 14.5729 24.3206 14.7999C24.166 15.0208 24.0887 15.2846 24.0887 15.5914C24.0887 16.0578 24.2556 16.4137 24.5895 16.6591C24.9295 16.9045 25.3592 17.0272 25.8786 17.0272Z" fill="#151E28"/>
<path d="M48.5924 9.91266L44.4285 10.0231C44.3852 9.72859 44.2677 9.46781 44.0761 9.24078C43.8844 9.00762 43.634 8.82661 43.3249 8.69775C43.0219 8.56277 42.6695 8.49527 42.2677 8.49527C41.7421 8.49527 41.2939 8.59958 40.923 8.8082C40.5582 9.01682 40.3789 9.29907 40.3851 9.65495C40.3789 9.93107 40.4902 10.1704 40.7189 10.3729C40.9539 10.5753 41.3712 10.7379 41.9709 10.8607L44.716 11.3761C46.1379 11.6461 47.1952 12.094 47.8876 12.7198C48.5862 13.3457 48.9386 14.174 48.9448 15.2049C48.9386 16.1744 48.6481 17.018 48.0731 17.7359C47.5043 18.4538 46.7253 19.0122 45.7361 19.411C44.7469 19.8037 43.6155 20.0001 42.3419 20.0001C40.3078 20.0001 38.7034 19.5859 37.5287 18.7576C36.3602 17.9231 35.6925 16.8064 35.5256 15.4074L40.0048 15.2969C40.1038 15.8123 40.3603 16.205 40.7746 16.475C41.1888 16.745 41.7174 16.88 42.3604 16.88C42.9416 16.88 43.4145 16.7726 43.7793 16.5578C44.1441 16.3431 44.3295 16.0578 44.3357 15.7019C44.3295 15.3828 44.1873 15.1282 43.9091 14.938C43.6309 14.7416 43.195 14.5882 42.6015 14.4778L40.1161 14.0084C38.688 13.7507 37.6246 13.2751 36.9259 12.5818C36.2273 11.8823 35.8811 10.9926 35.8873 9.91266C35.8811 8.96774 36.1346 8.16086 36.6477 7.49205C37.1609 6.8171 37.8904 6.30169 38.8363 5.9458C39.7823 5.58992 40.8982 5.41198 42.1842 5.41198C44.1132 5.41198 45.6341 5.81388 46.7469 6.61768C47.8598 7.41535 48.4749 8.51368 48.5924 9.91266Z" fill="#151E28"/>
<path d="M56.1041 11.6706V19.7332H51.5692V0.883684H55.9558V8.19154H56.1134C56.4349 7.32025 56.9604 6.63916 57.69 6.14829C58.4257 5.65742 59.3253 5.41198 60.3887 5.41198C61.3902 5.41198 62.262 5.63287 63.0039 6.07466C63.7458 6.51031 64.3208 7.12696 64.7288 7.92463C65.143 8.7223 65.3471 9.65496 65.3409 10.7226V19.7332H60.806V11.6062C60.8122 10.8208 60.6143 10.2072 60.2124 9.7654C59.8106 9.32362 59.2449 9.10273 58.5153 9.10273C58.0393 9.10273 57.6189 9.20704 57.2541 9.41566C56.8955 9.61814 56.6142 9.9096 56.4102 10.29C56.2123 10.6704 56.1103 11.1306 56.1041 11.6706Z" fill="#151E28"/>
<path d="M76.6597 5.59594V8.90933H67.4972V5.59594H76.6597ZM69.4076 19.7331V4.87804C69.4076 3.78585 69.6147 2.88081 70.0289 2.16291C70.4432 1.43887 71.0182 0.89891 71.7539 0.543028C72.4896 0.181009 73.3397 0 74.3042 0C74.9348 0 75.5283 0.0490878 76.0848 0.147263C76.6474 0.239301 77.0647 0.322136 77.3367 0.395767L76.6134 3.69075C76.4464 3.63552 76.2424 3.5895 76.0013 3.55269C75.7664 3.51587 75.5438 3.49746 75.3336 3.49746C74.8019 3.49746 74.4371 3.61405 74.2393 3.84721C74.0414 4.08038 73.9425 4.39944 73.9425 4.80441V19.7331H69.4076Z" fill="#151E28"/>
<path d="M83.7681 0.88357V19.7331H79.2331V0.88357H83.7681Z" fill="#151E28"/>
<path d="M93.6956 20C92.1994 20 90.9135 19.6962 89.8377 19.0888C88.7681 18.4752 87.9427 17.6223 87.3616 16.5301C86.7866 15.4318 86.4991 14.1586 86.4991 12.7105C86.4991 11.2563 86.7866 9.98311 87.3616 8.89092C87.9427 7.7926 88.7681 6.9397 89.8377 6.33225C90.9135 5.71866 92.1994 5.41187 93.6956 5.41187C95.1918 5.41187 96.4747 5.71866 97.5442 6.33225C98.62 6.9397 99.4454 7.7926 100.02 8.89092C100.602 9.98311 100.892 11.2563 100.892 12.7105C100.892 14.1586 100.602 15.4318 100.02 16.5301C99.4454 17.6223 98.62 18.4752 97.5442 19.0888C96.4747 19.6962 95.1918 20 93.6956 20ZM93.7234 16.6038C94.2675 16.6038 94.7281 16.4381 95.1052 16.1067C95.4824 15.7754 95.7699 15.3152 95.9677 14.7262C96.1717 14.1371 96.2737 13.456 96.2737 12.6829C96.2737 11.8975 96.1717 11.2103 95.9677 10.6212C95.7699 10.0322 95.4824 9.57201 95.1052 9.24067C94.7281 8.90933 94.2675 8.74366 93.7234 8.74366C93.1608 8.74366 92.6848 8.90933 92.2953 9.24067C91.9119 9.57201 91.6183 10.0322 91.4142 10.6212C91.2164 11.2103 91.1175 11.8975 91.1175 12.6829C91.1175 13.456 91.2164 14.1371 91.4142 14.7262C91.6183 15.3152 91.9119 15.7754 92.2953 16.1067C92.6848 16.4381 93.1608 16.6038 93.7234 16.6038Z" fill="#151E28"/>
<path d="M105.962 19.7331L102.253 5.59594H106.806L108.726 14.6525H108.847L110.905 5.59594H115.348L117.462 14.5881H117.583L119.447 5.59594H124L120.281 19.7331H115.431L113.205 11.4956H113.048L110.822 19.7331H105.962Z" fill="#151E28"/>
</svg>
