<svg width="70" height="70" viewBox="0 0 70 70" fill="none" xmlns="http://www.w3.org/2000/svg">
<circle cx="35" cy="35" r="35" fill="white"/>
<path d="M35.2666 24.0667C37.4636 24.0667 39.2666 25.8697 39.2666 28.0667V32.0667H31.2666V28.0667C31.2666 25.8697 33.0697 24.0667 35.2666 24.0667ZM41.9333 32.0667V28.0667C41.9333 24.397 38.9364 21.4 35.2666 21.4C31.5969 21.4 28.6 24.397 28.6 28.0667V32.0667H27.2666C25.7939 32.0667 24.6 33.2606 24.6 34.7334V45.4C24.6 46.8728 25.7939 48.0667 27.2666 48.0667H43.2666C44.7394 48.0667 45.9333 46.8728 45.9333 45.4V34.7334C45.9333 33.2606 44.7394 32.0667 43.2666 32.0667H41.9333ZM27.2666 34.7334H43.2666V45.4H27.2666V34.7334Z" fill="#FFB51C"/>
</svg>
